HIERARCHY
ROOT Hips
{
	OFFSET 0.00 0.00 0.00
	CHANNELS 6 Xposition Yposition Zposition Xrotation Yrotation Zrotation
	JOINT Spine
	{
		OFFSET 0.00000 6.11665 0.00000
		CHANNELS 3 Xrotation Yrotation Zrotation
		JOINT Head
		{
			OFFSET 0.00000 15.22556 0.00000
			CHANNELS 3 Xrotation Yrotation Zrotation
			End Site
			{
				OFFSET 0.00000 4.52755 0.00000
			}
		}
		JOINT LeftShoulder
		{
			OFFSET 0.00000 8.97765 0.00000
			CHANNELS 3 Xrotation Yrotation Zrotation
			JOINT LeftArm
			{
				OFFSET 7.11013 0.00000 0.00000
				CHANNELS 3 Xrotation Yrotation Zrotation
				JOINT LeftForeArm
				{
					OFFSET 10.39834 0.00000 0.00000
					CHANNELS 3 Yrotation Zrotation Xrotation
					JOINT LeftHand
					{
						OFFSET 8.88900 0.00000 0.00000
						CHANNELS 3 Xrotation Yrotation Zrotation
						JOINT LeftHandThumb1
						{
							OFFSET 0.00000 0.00000 0.00000
							CHANNELS 3 Xrotation Zrotation Yrotation
							End Site
							{
								OFFSET 0.00000 0.00000 3.93700
							}
						}
						End Site
						{
							OFFSET 3.93700 0.00000 0.00000
						}
					}
				}
			}
		}
		JOINT RightShoulder
		{
			OFFSET 0.00000 8.97765 0.00000
			CHANNELS 3 Xrotation Yrotation Zrotation
			JOINT RightArm
			{
				OFFSET -7.11013 0.00000 0.00000
				CHANNELS 3 Xrotation Yrotation Zrotation
				JOINT RightForeArm
				{
					OFFSET -10.39834 0.00000 0.00000
					CHANNELS 3 Yrotation Zrotation Xrotation
					JOINT RightHand
					{
						OFFSET -8.88900 0.00000 0.00000
						CHANNELS 3 Xrotation Yrotation Zrotation
						JOINT RightHandThumb1
						{
							OFFSET 0.00000 0.00000 0.00000
							CHANNELS 3 Xrotation Zrotation Yrotation
							End Site
							{
								OFFSET 0.00000 0.00000 3.93700
							}
						}
						End Site
						{
							OFFSET -3.93700 0.00000 0.00000
						}
					}
				}
			}
		}
	}
	JOINT LeftUpLeg
	{
		OFFSET 4.71176 0.00000 0.00000
		CHANNELS 3 Xrotation Yrotation Zrotation
		JOINT LeftLeg
		{
			OFFSET 0.00000 -15.51045 0.00000
			CHANNELS 3 Xrotation Yrotation Zrotation
			JOINT LeftFoot
			{
				OFFSET 0.00000 -14.85806 0.00000
				CHANNELS 3 Xrotation Yrotation Zrotation
				JOINT LeftToeBase
				{
					OFFSET 0.00000 -1.32744 4.95409
					CHANNELS 3 Xrotation Yrotation Zrotation
					End Site
					{
						OFFSET 0.00000 0.00000 2.95275
					}
				}
			}
		}
	}
	JOINT RightUpLeg
	{
		OFFSET -4.71176 0.00000 0.00000
		CHANNELS 3 Xrotation Yrotation Zrotation
		JOINT RightLeg
		{
			OFFSET 0.00000 -15.51045 0.00000
			CHANNELS 3 Xrotation Yrotation Zrotation
			JOINT RightFoot
			{
				OFFSET 0.00000 -14.85806 0.00000
				CHANNELS 3 Xrotation Yrotation Zrotation
				JOINT RightToeBase
				{
					OFFSET 0.00000 -1.32744 4.95409
					CHANNELS 3 Xrotation Yrotation Zrotation
					End Site
					{
						OFFSET 0.00000 0.00000 2.95275
					}
				}
			}
		}
	}
}
MOTION
Frames:	13
Frame Time: 0.008333
-8.0157 32.5193 4.7052 -7.1547 12.6817 12.8816 4.4176 -11.3791 -8.3604 16.3191 6.4595 -7.0499 10.1493 24.8965 22.0619 -9.3256 -20.3525 -89.3903 -8.4049 0.0000 13.3690 -2.7259 -18.3671 -8.5922 32.8623 0.0000 24.3270 -4.0946 -15.2765 -29.0330 6.5811 -12.9225 80.3701 119.7100 0.0000 -18.5571 -3.0153 10.5704 16.0214 33.1476 -0.0000 -26.2537 -63.8840 15.6120 28.8922 102.9477 -0.0000 -0.0000 37.0077 20.8004 -24.7763 20.3455 -0.0000 -0.0000 14.5456 -11.1687 1.4518 -3.1285 0.0000 -0.0000 -17.4225 -26.2138 0.1958 18.7109 -0.0000 -0.0000
-8.0270 32.5185 4.6952 -7.1868 13.0269 12.9345 4.3852 -11.6764 -8.3843 16.2940 6.4412 -6.9764 10.1609 24.8887 22.1031 -9.3831 -20.3425 -89.3818 -8.4065 0.0000 13.2986 -2.7313 -18.3589 -8.6127 32.8623 0.0000 24.3270 -4.0301 -15.3581 -29.0123 6.5818 -12.9877 80.4531 119.7831 0.0000 -18.5886 -3.0424 10.6387 16.0610 33.1476 -0.0000 -26.2537 -64.3669 16.2046 29.2654 102.6771 -0.0000 -0.0000 37.0673 20.9275 -24.9022 19.5451 -0.0000 -0.0000 14.4817 -11.1377 1.4867 -3.0222 0.0000 -0.0000 -17.5621 -26.5333 0.0896 18.7429 -0.0000 -0.0000
-8.0335 32.5187 4.6849 -7.2063 13.4198 13.0023 4.3063 -12.0095 -8.4060 16.3159 6.4173 -6.9269 10.1359 24.8504 22.1399 -9.3686 -20.2904 -89.3608 -8.4265 0.0000 13.2822 -2.7028 -18.3876 -8.5114 32.8623 0.0000 24.3270 -3.9455 -15.4145 -28.9974 6.5881 -13.0494 80.5332 119.8642 -0.0000 -18.6595 -3.0649 10.6733 16.1243 33.1476 -0.0000 -26.2537 -64.8072 16.7417 29.5274 102.4113 -0.0000 -0.0000 37.0765 20.9172 -25.1827 19.4290 -0.0000 -0.0000 14.4086 -11.1298 1.5120 -2.9243 0.0000 -0.0000 -17.6912 -26.8315 -0.1755 18.5977 -0.0000 -0.0000
-8.0384 32.5198 4.6780 -7.2533 13.8468 13.0752 4.2424 -12.3271 -8.4124 16.3388 6.4021 -6.9281 10.1168 24.7974 22.1805 -9.3749 -20.3146 -89.3411 -8.4527 0.0000 13.2129 -2.6929 -18.3729 -8.4872 32.8623 0.0000 24.3270 -3.8756 -15.4732 -28.9976 6.6334 -13.1061 80.6149 119.9584 0.0000 -18.6737 -3.0695 10.6695 16.1531 33.1476 -0.0000 -26.2537 -65.1829 17.2363 29.7058 102.1454 -0.0000 -0.0000 36.9849 20.8549 -25.0999 19.8745 -0.0000 -0.0000 14.3825 -11.2236 1.5457 -2.8718 0.0000 -0.0000 -17.8027 -27.1354 -0.1979 18.7459 -0.0000 -0.0000
-8.0414 32.5224 4.6664 -7.3375 14.2653 13.2021 4.2351 -12.6276 -8.4604 16.3507 6.3418 -6.9141 10.0907 24.7350 22.2151 -9.3972 -20.2785 -89.3026 -8.5109 0.0000 13.2106 -2.7160 -18.3429 -8.5724 32.8623 0.0000 24.3270 -3.9065 -15.4260 -29.0184 6.8275 -13.1935 80.7412 120.0776 0.0000 -18.6751 -3.0666 10.6717 16.1351 33.1476 -0.0000 -26.2537 -65.4777 17.7410 29.7928 101.8587 -0.0000 -0.0000 36.9840 20.7986 -25.2118 19.5133 -0.0000 -0.0000 14.3773 -11.3281 1.5314 -2.8136 0.0000 -0.0000 -17.9377 -27.3957 -0.3888 18.7430 -0.0000 -0.0000
-8.0424 32.5238 4.6528 -7.3908 14.6933 13.2908 4.2021 -12.8993 -8.4464 16.3601 6.2548 -6.9166 9.9732 24.6392 22.2797 -9.3673 -20.3006 -89.3005 -8.5004 0.0000 13.1546 -2.7144 -18.4311 -8.5282 32.8623 0.0000 24.3270 -3.8697 -15.4451 -29.0646 6.9047 -13.2465 80.8824 120.1701 0.0000 -18.6727 -3.0578 10.6454 16.1288 33.1476 -0.0000 -26.2537 -65.7644 18.1747 29.8350 101.5782 -0.0000 -0.0000 37.0402 20.6627 -25.3255 19.4629 -0.0000 -0.0000 14.3495 -11.4394 1.5410 -2.7649 0.0000 -0.0000 -18.0249 -27.6287 -0.4588 18.7839 -0.0000 -0.0000
-8.0429 32.5252 4.6384 -7.4615 15.1499 13.3902 4.1914 -13.1935 -8.4261 16.3374 6.0987 -6.8965 9.9583 24.6371 22.2953 -9.4721 -20.3599 -89.2948 -8.5380 0.0000 13.0784 -2.7383 -18.3954 -8.6183 32.8623 0.0000 24.3270 -3.8884 -15.4184 -29.1237 7.0237 -13.2880 81.0357 120.2629 -0.0000 -18.6836 -3.0538 10.6211 16.1428 33.1476 -0.0000 -26.2537 -66.0116 18.5740 29.7847 101.2949 -0.0000 -0.0000 37.1047 20.5897 -25.3645 19.6815 -0.0000 -0.0000 14.3594 -11.5991 1.5563 -2.7640 0.0000 -0.0000 -18.0814 -27.8155 -0.5697 18.6916 -0.0000 -0.0000
-8.0397 32.5277 4.6255 -7.5850 15.5650 13.5331 4.2429 -13.4236 -8.4348 16.3128 5.9870 -6.9200 9.8490 24.5632 22.3492 -9.4598 -20.4183 -89.2721 -8.5931 0.0000 12.9822 -2.7310 -18.4858 -8.5556 32.8623 0.0000 24.3270 -3.8876 -15.3796 -29.1835 7.1289 -13.3409 81.2083 120.3566 0.0000 -18.7269 -3.0479 10.5822 16.1690 33.1476 -0.0000 -26.2537 -66.1253 18.9818 29.6899 101.0027 -0.0000 -0.0000 37.1160 20.5232 -25.4815 19.9668 -0.0000 -0.0000 14.4212 -11.6971 1.5252 -2.7548 0.0000 -0.0000 -18.1568 -28.0269 -0.7115 18.5943 -0.0000 -0.0000
-8.0376 32.5292 4.6139 -7.6829 16.0159 13.6500 4.2552 -13.6309 -8.4280 16.2980 5.8532 -6.9033 9.7300 24.5228 22.4317 -9.4600 -20.4647 -89.2746 -8.6616 0.0000 12.8975 -2.7199 -18.6185 -8.4636 32.8623 0.0000 24.3270 -3.8866 -15.3886 -29.2369 7.1936 -13.3405 81.3625 120.4124 -0.0000 -18.6859 -3.0525 10.5461 16.2439 33.1476 -0.0000 -26.2537 -66.2445 19.3340 29.5411 100.7186 -0.0000 -0.0000 37.1365 20.5053 -25.5138 19.1342 -0.0000 -0.0000 14.4900 -11.9131 1.5305 -2.8153 0.0000 -0.0000 -18.1925 -28.2295 -0.6556 18.6624 -0.0000 -0.0000
-8.0335 32.5311 4.5984 -7.7689 16.4562 13.7376 4.2784 -13.7858 -8.3544 16.2829 5.6630 -6.9491 9.6895 24.4757 22.4511 -9.5545 -20.5242 -89.2871 -8.6971 -0.0000 12.7692 -2.7016 -18.7416 -8.3548 32.8623 0.0000 24.3270 -3.8823 -15.3686 -29.3203 7.2731 -13.3387 81.5097 120.4903 0.0000 -18.6887 -3.0324 10.4141 16.3339 33.1476 -0.0000 -26.2537 -66.3512 19.6389 29.3668 100.4460 -0.0000 -0.0000 37.1627 20.4929 -25.4712 18.8768 -0.0000 -0.0000 14.5399 -12.1111 1.5496 -2.8612 0.0000 -0.0000 -18.1930 -28.3674 -0.6659 18.6561 -0.0000 -0.0000
-8.0251 32.5325 4.5812 -7.8383 16.8999 13.8080 4.2988 -13.8974 -8.2458 16.2303 5.4370 -6.9914 9.5546 24.4186 22.5119 -9.5650 -20.4771 -89.3284 -8.8018 0.0000 12.6819 -2.7242 -18.6961 -8.4432 32.8623 0.0000 24.3270 -3.8893 -15.4114 -29.4051 7.2916 -13.2210 81.5769 120.5220 -0.0000 -18.6678 -3.0580 10.6531 16.1189 33.1476 -0.0000 -26.2537 -66.4394 19.8870 29.1347 100.1979 -0.0000 -0.0000 37.1624 20.5458 -25.5771 19.3872 -0.0000 -0.0000 14.5847 -12.2480 1.5716 -2.9308 0.0000 -0.0000 -18.1962 -28.5922 -0.5872 18.6763 -0.0000 -0.0000
-8.0160 32.5343 4.5604 -7.8782 17.2865 13.8979 4.3069 -13.8972 -8.1730 16.1655 5.1660 -7.0183 9.5309 24.3465 22.5252 -9.6595 -20.4073 -89.3510 -8.9104 0.0000 12.6984 -2.6847 -18.6276 -8.3516 32.8623 0.0000 24.3270 -3.9357 -15.3874 -29.4882 7.4090 -13.1390 81.6402 120.6070 0.0000 -18.4958 -3.0394 10.6349 16.0513 33.1476 -0.0000 -26.2537 -66.5009 20.1623 28.8991 99.9468 -0.0000 -0.0000 37.1577 20.6393 -25.7479 19.2601 -0.0000 -0.0000 14.5808 -12.4504 1.5581 -2.9763 0.0000 -0.0000 -18.2592 -28.7772 -0.5799 18.8447 -0.0000 -0.0000
-8.0152 32.5351 4.5384 -7.8858 17.5666 13.9252 4.3403 -13.7704 -8.0636 16.0507 4.8820 -7.0202 9.3250 24.2253 22.6055 -9.5595 -20.3141 -89.3574 -9.0630 0.0000 12.7467 -2.6298 -18.7570 -8.1292 32.8623 0.0000 24.3270 -3.9034 -15.4623 -29.5314 7.3658 -12.9026 81.6820 120.6709 0.0000 -18.0639 -2.9015 10.5375 15.4905 33.1476 -0.0000 -26.2537 -66.5972 20.3951 28.8022 99.7192 -0.0000 -0.0000 37.1339 20.6873 -25.7486 19.6042 -0.0000 -0.0000 14.5449 -12.5943 1.5754 -2.9945 0.0000 -0.0000 -18.2950 -28.8658 -0.6123 19.0315 -0.0000 -0.0000
